<?xml version="1.0" encoding="utf-8"?>
<!-- Generator: Adobe Illustrator 28.0.0, SVG Export Plug-In . SVG Version: 6.00 Build 0)  -->
<svg version="1.1" id="OBJECTS" xmlns="http://www.w3.org/2000/svg" xmlns:xlink="http://www.w3.org/1999/xlink" x="0px" y="0px"
	 viewBox="0 0 500 500" style="enable-background:new 0 0 500 500;" xml:space="preserve">
<style type="text/css">
	.st0{fill:#008080;}
	.st1{fill:url(#SVGID_1_);}
	.st2{fill:#FBFBFB;}
</style>
<g>
	<g>
		<path class="st0" d="M102.18,399.29l23.73-78.89c-32.75-76.6-14.81-128.83,6.25-159.32c23.16-33.52,76.54-60.38,76.54-60.38
			l-11.76,31.28c0,0-27.88,13.12-47.57,42.07c-26.07,38.34-26.8,85.87-2.17,141.29l1.62,3.65l-18.39,48.51
			c-0.81,2.14,1.36,4.2,3.45,3.28l59.9-26.31l45.7,28.56l1.88,7.36c2.11,8.26-6.94,14.87-14.17,10.35l-36.06-22.54L102.18,399.29z"
			/>
	</g>
	<linearGradient id="SVGID_1_" gradientUnits="userSpaceOnUse" x1="171.4464" y1="201.0095" x2="400.5773" y2="290.6464">
		<stop  offset="0.6352" style="stop-color:#008080"/>
		<stop  offset="0.696" style="stop-color:#038181"/>
		<stop  offset="0.7446" style="stop-color:#0D8686"/>
		<stop  offset="0.789" style="stop-color:#1E8D8D"/>
		<stop  offset="0.8309" style="stop-color:#369797"/>
		<stop  offset="0.871" style="stop-color:#54A4A5"/>
		<stop  offset="0.9098" style="stop-color:#7AB4B5"/>
		<stop  offset="0.9468" style="stop-color:#A6C7C8"/>
		<stop  offset="0.959" style="stop-color:#B6CECF"/>
		<stop  offset="0.9898" style="stop-color:#ECF2F3"/>
		<stop  offset="1" style="stop-color:#FFFFFF"/>
	</linearGradient>
	<path class="st1" d="M280.62,126.52c-64.73,0-117.2,52.47-117.2,117.2c0,64.73,52.47,117.2,117.2,117.2s117.2-52.47,117.2-117.2
		C397.82,178.99,345.35,126.52,280.62,126.52z M332.75,290.23c6.57,0,11.89,5.33,11.89,11.89s-5.33,11.89-11.89,11.89
		c-32.77,0-60.46-22.24-68.75-52.42h-0.27v40.52c0,6.57-5.33,11.89-11.89,11.89c-6.57,0-11.89-5.33-11.89-11.89v-42.21l-0.05-22.1
		h60.83c11.11,0,20.15-9.03,20.15-20.14c0-11.1-9.04-20.14-20.15-20.14h-51.83c-6.57,0-11.89-5.33-11.89-11.89
		s5.33-11.89,11.89-11.89h51.83c24.23,0,43.93,19.71,43.93,43.93s-19.7,43.93-43.93,43.93h-11.57
		C296.47,278.43,313.26,290.23,332.75,290.23z"/>
	<path class="st2" d="M344.65,302.12c0,6.57-5.33,11.89-11.89,11.89c-32.77,0-60.46-22.24-68.75-52.42h-0.27v40.52
		c0,6.57-5.33,11.89-11.89,11.89c-6.57,0-11.89-5.33-11.89-11.89v-42.21l-0.01-4.71v-0.04l-0.04-17.36v-18.89
		c0-2.72,2.21-4.92,4.92-4.92h9.19c1.91,0,3.65,1.09,4.45,2.81c1.95,4.13,6,12.3,11.45,21h30.81c11.11,0,20.15-9.03,20.15-20.14
		c0-11.1-9.04-20.14-20.15-20.14h-51.83c-6.57,0-11.89-5.33-11.89-11.89s5.33-11.89,11.89-11.89h51.83
		c24.23,0,43.93,19.71,43.93,43.93s-19.7,43.93-43.93,43.93h-11.57c7.32,16.83,24.11,28.63,43.6,28.63
		C339.32,290.23,344.65,295.56,344.65,302.12z"/>
</g>
</svg>
